{
  "accessors": [
    {
      "bufferView": 1,
      "componentType": 5126,
      "count": 1790,
      "max": [
        29.5,
        -2.0,
        30.524999618530273
      ],
      "min": [
        -28.549999237060547,
        -78.0,
        -27.524999618530273
      ],
      "type": "VEC3"
    },
    {
      "bufferView": 1,
      "byteOffset": 21480,
      "componentType": 5126,
      "count": 1790,
      "max": [
        1.0,
        1.0,
        1.0
      ],
      "min": [
        -1.0,
        -1.0,
        -1.0
      ],
      "type": "VEC3"
    },
    {
      "bufferView": 0,
      "componentType": 5125,
      "count": 8088,
      "type": "SCALAR"
    },
    {
      "bufferView": 1,
      "byteOffset": 42960,
      "componentType": 5126,
      "count": 231,
      "max": [
        10.399999618530273,
        -23.0,
        18.100000381469727
      ],
      "min": [
        7.400000095367432,
        -86.19999694824219,
        15.100000381469727
      ],
      "type": "VEC3"
    },
    {
      "bufferView": 1,
      "byteOffset": 45732,
      "componentType": 5126,
      "count": 231,
      "max": [
        0.9999844431877136,
        1.0,
        1.0
      ],
      "min": [
        -0.9999844431877136,
        -6.1001378526270855e-06,
        -1.0
      ],
      "type": "VEC3"
    },
    {
      "bufferView": 0,
      "byteOffset": 32352,
      "componentType": 5125,
      "count": 747,
      "type": "SCALAR"
    },
    {
      "bufferView": 1,
      "byteOffset": 48504,
      "componentType": 5126,
      "count": 9381,
      "max": [
        39.209999084472656,
        -4.065000057220459,
        39.209999084472656
      ],
      "min": [
        -38.209999084472656,
        -101.0,
        -38.209999084472656
      ],
      "type": "VEC3"
    },
    {
      "bufferView": 1,
      "byteOffset": 161076,
      "componentType": 5126,
      "count": 9381,
      "max": [
        1.0,
        1.0,
        1.0
      ],
      "min": [
        -1.0,
        -1.0,
        -1.0
      ],
      "type": "VEC3"
    },
    {
      "bufferView": 0,
      "byteOffset": 35340,
      "componentType": 5125,
      "count": 29382,
      "type": "SCALAR"
    },
    {
      "bufferView": 1,
      "byteOffset": 273648,
      "componentType": 5126,
      "count": 10036,
      "max": [
        42.55799865722656,
        -8.418999671936035,
        39.209999084472656
      ],
      "min": [
        -37.91999816894531,
        -116.96199798583984,
        -38.209999084472656
      ],
      "type": "VEC3"
    },
    {
      "bufferView": 1,
      "byteOffset": 394080,
      "componentType": 5126,
      "count": 10036,
      "max": [
        1.0,
        1.0,
        1.0
      ],
      "min": [
        -1.0,
        -1.0,
        -1.0
      ],
      "type": "VEC3"
    },
    {
      "bufferView": 0,
      "byteOffset": 152868,
      "componentType": 5125,
      "count": 40191,
      "type": "SCALAR"
    },
    {
      "bufferView": 1,
      "byteOffset": 514512,
      "componentType": 5126,
      "count": 249,
      "max": [
        11.100000381469727,
        -86.19999694824219,
        18.700000762939453
      ],
      "min": [
        7.099999904632568,
        -93.19999694824219,
        14.699999809265137
      ],
      "type": "VEC3"
    },
    {
      "bufferView": 1,
      "byteOffset": 517500,
      "componentType": 5126,
      "count": 249,
      "max": [
        1.0,
        1.0,
        1.0
      ],
      "min": [
        -1.0,
        -1.0,
        -1.0
      ],
      "type": "VEC3"
    },
    {
      "bufferView": 0,
      "byteOffset": 313632,
      "componentType": 5125,
      "count": 921,
      "type": "SCALAR"
    },
    {
      "bufferView": 1,
      "byteOffset": 520488,
      "componentType": 5126,
      "count": 567,
      "max": [
        8.289999961853027,
        -8.0,
        19.225000381469727
      ],
      "min": [
        -13.300000190734863,
        -111.0,
        -13.0
      ],
      "type": "VEC3"
    },
    {
      "bufferView": 1,
      "byteOffset": 527292,
      "componentType": 5126,
      "count": 567,
      "max": [
        1.0,
        1.0,
        0.9997586607933044
      ],
      "min": [
        -1.0,
        -1.0,
        -0.9999974966049194
      ],
      "type": "VEC3"
    },
    {
      "bufferView": 0,
      "byteOffset": 317316,
      "componentType": 5125,
      "count": 2703,
      "type": "SCALAR"
    },
    {
      "bufferView": 1,
      "byteOffset": 534096,
      "componentType": 5126,
      "count": 88,
      "max": [
        -9.800000190734863,
        -94.69999694824219,
        26.799999237060547
      ],
      "min": [
        -12.800000190734863,
        -97.69999694824219,
        25.024999618530273
      ],
      "type": "VEC3"
    },
    {
      "bufferView": 1,
      "byteOffset": 535152,
      "componentType": 5126,
      "count": 88,
      "max": [
        0.9967135190963745,
        0.9986275434494019,
        1.0
      ],
      "min": [
        -0.9976751208305359,
        -0.998627781867981,
        -5.511918743650313e-07
      ],
      "type": "VEC3"
    },
    {
      "bufferView": 0,
      "byteOffset": 328128,
      "componentType": 5125,
      "count": 318,
      "type": "SCALAR"
    },
    {
      "bufferView": 1,
      "byteOffset": 536208,
      "componentType": 5126,
      "count": 576,
      "max": [
        4.650000095367432,
        -23.0,
        -12.850000381469727
      ],
      "min": [
        -0.8500000238418579,
        -88.0,
        -18.350000381469727
      ],
      "type": "VEC3"
    },
    {
      "bufferView": 1,
      "byteOffset": 543120,
      "componentType": 5126,
      "count": 576,
      "max": [
        1.0,
        1.0,
        1.0
      ],
      "min": [
        -1.0,
        -1.0,
        -1.0
      ],
      "type": "VEC3"
    },
    {
      "bufferView": 0,
      "byteOffset": 329400,
      "componentType": 5125,
      "count": 1896,
      "type": "SCALAR"
    }
  ],
  "asset": {
    "extras": {
      "author": "mphatsosimbao (https://sketchfab.com/mphatsosimbao)",
      "license": "CC-BY-4.0 (http://creativecommons.org/licenses/by/4.0/)",
      "source": "https://sketchfab.com/3d-models/bio-flo115-head-plate-with-probes-fixtures-d6691e3dc9ab4db0bd93c2b5389b1bf8",
      "title": "Bio Flo115 Head Plate With Probes & Fixtures"
    },
    "generator": "Sketchfab-14.8.0",
    "version": "2.0"
  },
  "bufferViews": [
    {
      "buffer": 0,
      "byteLength": 336984,
      "name": "floatBufferViews",
      "target": 34963
    },
    {
      "buffer": 0,
      "byteLength": 550032,
      "byteOffset": 336984,
      "byteStride": 12,
      "name": "floatBufferViews",
      "target": 34962
    }
  ],
  "buffers": [
    {
      "byteLength": 887016,
      "uri": "scene.bin"
    }
  ],
  "materials": [
    {
      "alphaMode": "BLEND",
      "doubleSided": true,
      "name": "color_-1023739142",
      "pbrMetallicRoughness": {
        "baseColorFactor": [
          0.980392,
          0.980392,
          0.980392,
          0.239216
        ],
        "metallicFactor": 0.0
      }
    },
    {
      "alphaMode": "BLEND",
      "doubleSided": true,
      "name": "color_-1025645852",
      "pbrMetallicRoughness": {
        "baseColorFactor": [
          0.866667,
          0.886275,
          0.894118,
          0.239216
        ],
        "metallicFactor": 0.0
      }
    },
    {
      "doubleSided": true,
      "name": "color_12568524",
      "pbrMetallicRoughness": {
        "baseColorFactor": [
          0.74902,
          0.780392,
          0.8,
          1.0
        ],
        "metallicFactor": 0.0
      }
    },
    {
      "doubleSided": true,
      "name": "color_14541540",
      "pbrMetallicRoughness": {
        "baseColorFactor": [
          0.866667,
          0.886275,
          0.894118,
          1.0
        ],
        "metallicFactor": 0.0
      }
    },
    {
      "doubleSided": true,
      "name": "color_15277357",
      "pbrMetallicRoughness": {
        "baseColorFactor": [
          0.913725,
          0.113725,
          0.176471,
          1.0
        ],
        "metallicFactor": 0.0
      }
    },
    {
      "doubleSided": true,
      "name": "color_2829873",
      "pbrMetallicRoughness": {
        "baseColorFactor": [
          0.168627,
          0.180392,
          0.192157,
          1.0
        ],
        "metallicFactor": 0.0
      }
    },
    {
      "doubleSided": true,
      "name": "color_4634441",
      "pbrMetallicRoughness": {
        "baseColorFactor": [
          0.27451,
          0.717647,
          0.286275,
          1.0
        ],
        "metallicFactor": 0.0
      }
    },
    {
      "doubleSided": true,
      "name": "color_6383466",
      "pbrMetallicRoughness": {
        "baseColorFactor": [
          0.380392,
          0.403922,
          0.415686,
          1.0
        ],
        "metallicFactor": 0.0
      }
    }
  ],
  "meshes": [
    {
      "name": "Object_0",
      "primitives": [
        {
          "attributes": {
            "NORMAL": 1,
            "POSITION": 0
          },
          "indices": 2,
          "material": 0,
          "mode": 4
        }
      ]
    },
    {
      "name": "Object_1",
      "primitives": [
        {
          "attributes": {
            "NORMAL": 4,
            "POSITION": 3
          },
          "indices": 5,
          "material": 1,
          "mode": 4
        }
      ]
    },
    {
      "name": "Object_2",
      "primitives": [
        {
          "attributes": {
            "NORMAL": 7,
            "POSITION": 6
          },
          "indices": 8,
          "material": 2,
          "mode": 4
        }
      ]
    },
    {
      "name": "Object_3",
      "primitives": [
        {
          "attributes": {
            "NORMAL": 10,
            "POSITION": 9
          },
          "indices": 11,
          "material": 3,
          "mode": 4
        }
      ]
    },
    {
      "name": "Object_4",
      "primitives": [
        {
          "attributes": {
            "NORMAL": 13,
            "POSITION": 12
          },
          "indices": 14,
          "material": 4,
          "mode": 4
        }
      ]
    },
    {
      "name": "Object_5",
      "primitives": [
        {
          "attributes": {
            "NORMAL": 16,
            "POSITION": 15
          },
          "indices": 17,
          "material": 5,
          "mode": 4
        }
      ]
    },
    {
      "name": "Object_6",
      "primitives": [
        {
          "attributes": {
            "NORMAL": 19,
            "POSITION": 18
          },
          "indices": 20,
          "material": 6,
          "mode": 4
        }
      ]
    },
    {
      "name": "Object_7",
      "primitives": [
        {
          "attributes": {
            "NORMAL": 22,
            "POSITION": 21
          },
          "indices": 23,
          "material": 7,
          "mode": 4
        }
      ]
    }
  ],
  "nodes": [
    {
      "children": [
        1
      ],
      "matrix": [
        1.0,
        0.0,
        0.0,
        0.0,
        0.0,
        2.220446049250313e-16,
        -1.0,
        0.0,
        0.0,
        1.0,
        2.220446049250313e-16,
        0.0,
        0.0,
        0.0,
        0.0,
        1.0
      ],
      "name": "Sketchfab_model"
    },
    {
      "children": [
        2,
        3,
        4,
        5,
        6,
        7,
        8,
        9
      ],
      "name": "tinker.obj.cleaner.materialmerger.gles"
    },
    {
      "mesh": 0,
      "name": "Object_2"
    },
    {
      "mesh": 1,
      "name": "Object_3"
    },
    {
      "mesh": 2,
      "name": "Object_4"
    },
    {
      "mesh": 3,
      "name": "Object_5"
    },
    {
      "mesh": 4,
      "name": "Object_6"
    },
    {
      "mesh": 5,
      "name": "Object_7"
    },
    {
      "mesh": 6,
      "name": "Object_8"
    },
    {
      "mesh": 7,
      "name": "Object_9"
    }
  ],
  "scene": 0,
  "scenes": [
    {
      "name": "Sketchfab_Scene",
      "nodes": [
        0
      ]
    }
  ]
}
